<svg xmlns="http://www.w3.org/2000/svg" width="400" height="63" viewBox="0 0 400 63">
  <g id="logo" transform="translate(-0.001)">
    <rect id="Rectangle_463" data-name="Rectangle 463" width="31.846" height="4.546" transform="translate(5.559 3.729)" fill="#9b1c1f"/>
    <path id="Path_8092" data-name="Path 8092" d="M6.064,32.668a18.07,18.07,0,0,1,4.861-8.623,15.192,15.192,0,0,1,10.537-3.963,16.488,16.488,0,0,1,7.077,1.553,15.16,15.16,0,0,1,5.444,4.157,17.707,17.707,0,0,1,3.112,6.833H6.064Zm-.545,4.622H42.967a22.572,22.572,0,0,0-4.588-14.211A20.525,20.525,0,0,0,21.348,15,19.859,19.859,0,0,0,4.86,22.884,22.8,22.8,0,0,0,5.754,52.1,19.83,19.83,0,0,0,21.7,58.776a22.928,22.928,0,0,0,8.243-1.4A20.52,20.52,0,0,0,36.471,53.3,24.386,24.386,0,0,0,41.6,46.264l-4.51-2.37a25.909,25.909,0,0,1-4.548,5.945,15.963,15.963,0,0,1-5.1,2.95,17.762,17.762,0,0,1-6.183,1.127,14.778,14.778,0,0,1-11.082-4.662A16.91,16.91,0,0,1,5.517,37.291m56.5-16.625H70.5V16.043H62.019V0H56.61V16.043H49.3v4.584h7.311V58.694h5.41Z" transform="translate(0)"/>
    <rect id="Rectangle_464" data-name="Rectangle 464" width="2.256" height="43.779" transform="translate(221.249 14.994)" fill="#9b1c1f"/>
    <path id="Path_8093" data-name="Path 8093" d="M795.345,127.384c3.266,0,5.209-1.553,5.209-4.117,0-2.33-1.479-3.457-4.162-4.427-2.216-.817-2.994-1.515-2.994-2.524,0-1.127,1.128-1.825,2.805-1.825a7.786,7.786,0,0,1,3.538.855v-2.4a10.564,10.564,0,0,0-3.733-.739c-2.955,0-5.093,1.553-5.093,4.117,0,2.37,1.439,3.5,4.121,4.468,2.216.777,3.072,1.437,3.072,2.564,0,.777-.621,1.321-1.671,1.553a5.755,5.755,0,0,1-1.477.156,9.531,9.531,0,0,1-3.889-1.049V126.5a10.778,10.778,0,0,0,4.278.893m-9.8-.272v-2.136h-6.961v-4.2h5.642v-2.1h-5.638v-4h6.64V112.5h-9.217v14.612Zm-16.682-14.612H766.3v9.167a3.344,3.344,0,0,1-6.688,0v-9.167h-2.489v9.407a5.907,5.907,0,0,0,11.781,0v-9.407ZM738.3,119.8a4.976,4.976,0,1,1,1.385,3.678A5.017,5.017,0,0,1,738.3,119.8m-2.566,0a7.359,7.359,0,0,0,6.65,7.5,10.845,10.845,0,0,0,8.4,4.311,12.067,12.067,0,0,0,2.45-.232v-2.254a9.948,9.948,0,0,1-2.216.232,9.062,9.062,0,0,1-5.795-2.214A7.343,7.343,0,0,0,750.9,119.8a7.583,7.583,0,0,0-15.165,0m-6.494-7.3h-2.567V127.11h2.567ZM721,114.634V112.5H709.915v2.136h4.278V127.1h2.567v-12.47ZM704.315,112.5h-2.567v9.167a3.344,3.344,0,0,1-6.688,0V112.5h-2.489v9.407a5.907,5.907,0,0,0,11.781,0V112.5Zm-30.561,7.3a4.976,4.976,0,1,1,1.385,3.678,5.017,5.017,0,0,1-1.385-3.678m-2.567,0a7.582,7.582,0,1,0,7.582-7.574,7.443,7.443,0,0,0-7.582,7.574m-13.338.739h3.033a2.091,2.091,0,0,1,2.216,2.254,2.279,2.279,0,0,1-2.489,2.3h-2.761Zm0-1.825v-4.157h2.332a2.117,2.117,0,0,1,2.372,2.176,1.839,1.839,0,0,1-1.244,1.9c-.389.038-.818.078-1.244.078Zm5.444.739a3.138,3.138,0,0,0,1.867-2.874c0-2.6-2.138-4.079-5.133-4.079H655.4v14.612h5.093c3.112,0,5.209-1.553,5.209-4.2a3.6,3.6,0,0,0-2.4-3.457" transform="translate(-400.554 -68.612)"/>
    <path id="Path_8094" data-name="Path 8094" d="M729,53.478V38.866h-2.567v6.139h-6.612V38.872h-2.567V53.484h2.567V47.147h6.612v6.331ZM710.721,39.649a9,9,0,0,0-4.278-1.049,7.575,7.575,0,1,0-.038,15.151,9.472,9.472,0,0,0,4.432-1v-2.38a9.626,9.626,0,0,1-4.356,1.049,5.2,5.2,0,1,1,.038-10.408,9.307,9.307,0,0,1,4.208,1.049Zm-16.37,1.359V38.872h-11.08V41h4.278v12.47h2.567V41ZM671.488,48.66c.777-1.787,1.555-3.651,2.178-5.166.621,1.669,1.282,3.3,2.138,5.166Zm-4.823,4.816h2.683l1.282-2.914h5.989l1.282,2.914h2.683l-6.921-14.838h-.078ZM644,38.872l6.221,14.838h.078l3.033-7.226.777-1.982c.234.622.545,1.321.777,1.982l2.993,7.226h.078l6.221-14.838h-2.839c-1.088,2.836-2.805,7.264-3.46,9.207-.818-2.292-2.45-5.943-3.773-9.051h-.078l-1.6,3.729-.894,2.136c-.5,1.2-1,2.4-1.282,3.185-.311-1-.777-2.33-1.322-3.691l-2.124-5.514Z" transform="translate(-393.586 -23.606)"/>
    <path id="Path_8095" data-name="Path 8095" d="M228.952,58.694h5.366V36.243a34.076,34.076,0,0,0-1.711-12.508,13.981,13.981,0,0,0-5.328-6.371A14.67,14.67,0,0,0,219,14.994a17.283,17.283,0,0,0-8.477,2.136,22.409,22.409,0,0,0-7.155,6.405V0H198V58.694h5.366V42.417a54.645,54.645,0,0,1,.777-11.3,15.306,15.306,0,0,1,5.055-7.962,13.22,13.22,0,0,1,8.71-3.225,10.7,10.7,0,0,1,6.883,2.09,10.868,10.868,0,0,1,3.606,6.215,49.87,49.87,0,0,1,.583,9.6V58.694Z" transform="translate(-121.009)"/>
    <path id="Path_8096" data-name="Path 8096" d="M345.791,60.7a16.978,16.978,0,0,1-2.178,8.391,15.194,15.194,0,0,1-5.911,6.021,16.944,16.944,0,0,1-16.332,0,15.716,15.716,0,0,1-5.911-6.021,16.679,16.679,0,0,1-2.178-8.391,16.464,16.464,0,0,1,4.783-11.925,15.711,15.711,0,0,1,22.863,0A16.442,16.442,0,0,1,345.789,60.7m-.621,15.15a22.375,22.375,0,0,0,.311-30.3,21.716,21.716,0,0,0-31.924.078,22.325,22.325,0,0,0,.311,30.26,21.986,21.986,0,0,0,31.3-.038" transform="translate(-188.115 -23.605)"/>
    <path id="Path_8097" data-name="Path 8097" d="M457.125,47.81l3.46-3.573c-3.889-3.729-7.738-5.632-11.549-5.632a11.02,11.02,0,0,0-9.369,17.48,21.732,21.732,0,0,0,7.66,5.749,23.719,23.719,0,0,1,6.726,4.428,6.134,6.134,0,0,1,1.477,4.079,6.44,6.44,0,0,1-2.256,4.856,7.769,7.769,0,0,1-5.482,2.06,11.8,11.8,0,0,1-8.71-4.622l-3.382,3.8a14.924,14.924,0,0,0,5.444,4.311,15.641,15.641,0,0,0,6.882,1.553,12.383,12.383,0,0,0,8.982-3.535,11.751,11.751,0,0,0,3.607-8.7,10.729,10.729,0,0,0-2.1-6.525,24.485,24.485,0,0,0-8.127-5.983,21.162,21.162,0,0,1-6.412-4.389,6.043,6.043,0,0,1-1.517-3.845,5.4,5.4,0,0,1,1.867-4.039A6.257,6.257,0,0,1,448.8,43.57a12.627,12.627,0,0,1,8.321,4.233" transform="translate(-266.282 -23.608)"/>
  </g>
</svg>
